<svg width="80" height="24" viewBox="0 0 80 24" fill="none" xmlns="http://www.w3.org/2000/svg">
<path d="M16.8867 19.4821C17.9178 20.5134 19.5897 20.5134 20.6209 19.4821C21.652 18.4507 21.652 16.7785 20.6209 15.7472L16.6762 11.8018C15.7498 10.8752 15.7498 9.37321 16.6762 8.44668L20.6137 4.50843C21.6449 3.47706 21.6449 1.80489 20.6137 0.773524C19.5826 -0.257841 17.9107 -0.257842 16.8795 0.773523L9.44843 8.20598C8.87476 8.77975 8.62024 9.55186 8.68486 10.3016C8.71346 10.9371 8.97036 11.5643 9.45556 12.0496L16.8867 19.4821Z" fill="#3A3B3D"/>
<path d="M7.51779 7.52645L4.5076 4.51571C3.47642 3.48435 1.80456 3.48435 0.773382 4.51571C-0.257794 5.54708 -0.257794 7.21925 0.773382 8.25061L4.71804 12.196C5.6444 13.1225 5.6444 14.6246 4.71804 15.5511L0.78051 19.4893C-0.250665 20.5207 -0.250665 22.1929 0.78051 23.2242C1.81169 24.2556 3.48355 24.2556 4.51473 23.2242L10.9726 16.7652L7.98276 13.7749C7.12779 12.9197 6.66878 11.8133 6.60834 10.6949C6.52337 9.59277 6.82602 8.46053 7.51779 7.52645Z" fill="#3A3B3D"/>
<path d="M26.4 8.67145L26.4001 8.67121C26.6981 7.55756 27.1894 6.75958 27.8509 6.23775C28.511 5.71689 29.3783 5.44141 30.4843 5.44141H37.9607L37.4432 7.37902H32.2396C31.7014 7.37902 31.2284 7.47565 30.8521 7.70367C30.4668 7.93713 30.2143 8.28959 30.0939 8.73357C30.0515 8.87638 30.0269 9.0199 30.0269 9.1617C30.0269 9.16263 30.0269 9.16357 30.0269 9.1645C30.0269 9.16503 30.0269 9.16557 30.0269 9.1661C30.0313 9.54398 30.2026 9.85615 30.5284 10.0521C30.8245 10.2302 31.2187 10.2949 31.6603 10.2949H34.0827C34.9649 10.2949 35.5567 10.4703 35.9221 10.758C36.2703 11.0321 36.4689 11.4532 36.4689 12.0931C36.4689 12.4447 36.4111 12.8532 36.2884 13.3218L36.2882 13.3225L36.1046 14.0133L36.1044 14.0141C35.8035 15.1307 35.3099 15.9309 34.6469 16.4543C33.9851 16.9767 33.1171 17.2528 32.0114 17.2528H24.0977L24.6215 15.3152H30.2648C30.8029 15.3152 31.2756 15.2186 31.6509 14.9901C32.035 14.7562 32.2851 14.4032 32.4022 13.9592C32.4443 13.8169 32.4688 13.6738 32.4688 13.5325C32.4688 13.1531 32.2988 12.8389 31.9717 12.6421C31.6752 12.4638 31.2793 12.3993 30.8353 12.3993H28.413C27.5308 12.3993 26.939 12.2239 26.5736 11.9362C26.2254 11.6621 26.0267 11.241 26.0267 10.6011C26.0267 10.251 26.087 9.84045 26.2155 9.36586L26.2159 9.36423L26.4 8.67145Z" fill="#3A3B3D"/>
<path d="M49.0212 13.1518L50.9723 8.13584H54.5717L49.6368 17.244H45.5012L45.65 13.9798C45.6581 13.8005 45.5393 13.6402 45.3655 13.5959C45.1916 13.5515 45.0106 13.6353 44.9319 13.7966L43.2451 17.2528H39.1009L39.0523 8.13584H42.7269L42.0101 12.9679C41.9827 13.1525 42.094 13.3296 42.2723 13.3849C42.4506 13.4402 42.6425 13.3572 42.7244 13.1895L45.1923 8.13584H48.5259L48.2905 12.9964C48.2816 13.1817 48.4083 13.3462 48.5898 13.3848C48.7712 13.4234 48.9539 13.3248 49.0212 13.1518Z" fill="#3A3B3D"/>
<path fill-rule="evenodd" clip-rule="evenodd" d="M64.7214 17.3947H61.0871C61.0821 17.2937 61.0367 17.0552 60.9582 16.9865C60.8495 16.8915 60.6963 16.8665 60.5631 16.9222C59.8998 17.1995 59.1689 17.3405 58.3657 17.3405C56.7706 17.3405 55.6271 17.157 54.8956 16.8239C54.5346 16.6594 54.2908 16.466 54.1374 16.2563C53.987 16.0508 53.9082 15.8093 53.9082 15.516C53.9082 15.3507 53.9342 15.1653 53.9912 14.9581L53.992 14.9551C54.245 14.0051 54.8617 13.3222 55.8931 12.8999C56.5291 12.6413 57.5764 12.4371 59.0666 12.3032C60.5728 12.1679 61.7182 11.9506 62.4706 11.6345C62.5786 11.5892 62.6595 11.4963 62.6896 11.3832L62.7596 11.1207L62.7597 11.1205C62.8065 10.9464 62.8336 10.7766 62.8341 10.614C62.841 10.2469 62.7143 9.91586 62.4127 9.69322C62.1336 9.48721 61.7581 9.41521 61.3498 9.41521C60.8351 9.41521 60.3775 9.53023 60.0064 9.79131C59.7064 10.0024 59.4863 10.2925 59.3375 10.6439H55.5448C56.6979 8.94211 58.7799 8.04808 61.9203 8.04808C63.5171 8.04808 64.6517 8.2977 65.3767 8.74626C66.0717 9.1763 66.4189 9.80552 66.4217 10.689C66.4217 11.0656 66.3633 11.483 66.2413 11.9431L64.7214 17.3947ZM62.1016 13.5336L61.7595 14.814L61.7593 14.8149C61.6516 15.2216 61.4094 15.5387 61.0441 15.7447C60.6915 15.9435 60.2477 16.0261 59.7437 16.0261C59.3229 16.0261 58.947 15.9694 58.6638 15.8112C58.5166 15.7289 58.3889 15.6159 58.2996 15.4663C58.2101 15.3162 58.1716 15.15 58.1716 14.9806C58.1716 14.8629 58.1884 14.744 58.218 14.6256C58.2186 14.6231 58.2193 14.6207 58.2199 14.6183C58.3523 14.13 58.7153 13.7938 59.2119 13.5869L59.2142 13.586C59.5204 13.4607 59.9597 13.3713 60.5062 13.3059L60.5067 13.3059C61.045 13.2422 61.3977 13.1646 61.594 13.0852C61.727 13.0313 61.879 13.0574 61.9865 13.1523C62.094 13.2473 62.1386 13.395 62.1016 13.5336Z" fill="#3A3B3D"/>
<path fill-rule="evenodd" clip-rule="evenodd" d="M79.2486 13.1076L79.2484 13.1083C78.8584 14.5709 78.1321 15.6392 77.083 16.3481C76.0277 17.0611 74.609 17.4351 72.7946 17.4351C72.0294 17.4351 71.4099 17.3019 70.9203 17.0545C70.8185 17.0031 70.699 17.0003 70.5949 17.0469C70.4908 17.0935 70.4133 17.1846 70.384 17.2948L69.511 20.5684H65.8013L69.1564 8.04124H72.8379C72.8428 8.1422 72.8882 8.42807 72.9668 8.49675C73.0754 8.59175 73.2286 8.61668 73.3618 8.56101C74.0281 8.28249 74.7331 8.14268 75.4802 8.14268C76.9824 8.14268 78.0403 8.4 78.7119 8.85802C79.3567 9.29778 79.6883 9.95185 79.6833 10.8856C79.6777 11.2974 79.6079 11.7652 79.468 12.2915L79.4678 12.2923L79.2486 13.1076ZM75.0987 11.4732L74.3365 14.3207L74.3363 14.3213C74.1938 14.8593 73.9697 15.3048 73.638 15.618C73.2979 15.9393 72.8729 16.0943 72.3908 16.0943C72.0417 16.0943 71.7095 16.0117 71.4653 15.7796C71.2175 15.544 71.126 15.2176 71.126 14.8734C71.126 14.65 71.1652 14.4004 71.2343 14.1301L71.235 14.1275L71.2354 14.126L71.999 11.2736L71.9992 11.2726C72.1448 10.7345 72.3715 10.2894 72.7045 9.97663C73.0458 9.65603 73.4711 9.50103 73.9531 9.50103C74.3022 9.50103 74.6344 9.58366 74.8786 9.8158C75.1265 10.0514 75.2179 10.3778 75.2179 10.722C75.2179 10.9487 75.1747 11.2004 75.0993 11.4712L75.0987 11.4732Z" fill="#3A3B3D"/>
</svg>
